# xmcd
#
# Track frame offsets:
#	150
#	19450
#	31249
#	42308
#	58857
#	71627
#	84837
#	96725
#	109594
#	124941
#	148124
#	166473
#	174043
#	187720
#	204334
#	224550
#	237022
#	249254
#	261525
#	266421
#
# Disc length: 3708 seconds
#
# Revision: 0
# Processed by: cddbd v1.5.1PL2 Copyright (c) Steve Scherf et al.
# Submitted via: EasyCDDAExtractor 9.0.0.1
#
DISCID=1f0e7a14
DTITLE=Various Artist - Maestros del blues CD 3
DYEAR=1900
DGENRE=
TTITLE0=Etta James - Out on the streets again
TTITLE1=Ray Charles - Baby tell me what have I done
TTITLE2=John Lee Hooker - Please don't go
TTITLE3=Otis Rush - So many roads, so many trains
TTITLE4=Little Tommy Tucker - Hi heel sneakers
TTITLE5=Buster Brown - Fannie Mae
TTITLE6=Little Milton - Losin' Hand
TTITLE7=Muddy Waters - Louisiana Blues
TTITLE8=Merle Haggard - Mule skinner blues
TTITLE9=Steel Blues - Quarantine
TTITLE10=Bo Wilson - Chevrolet
TTITLE11=Howlin Wolf - How many more years
TTITLE12=Big Bill Broonzy and Washboard Sam - By myself
TTITLE13=Memphis Slim - Baby gone
TTITLE14=Lightnin Hopkins - Shine on soon
TTITLE15=Sonny Boy Williamson - 99
TTITLE16=J. B. Lenoir - When I'm drinking
TTITLE17=Little Walker - My Baby
TTITLE18=Big Bill Broonzy - John Henry
TTITLE19=Howlin Wolf - Louise
EXTD=
EXTT0=
EXTT1=
EXTT2=
EXTT3=
EXTT4=
EXTT5=
EXTT6=
EXTT7=
EXTT8=
EXTT9=
EXTT10=
EXTT11=
EXTT12=
EXTT13=
EXTT14=
EXTT15=
EXTT16=
EXTT17=
EXTT18=
EXTT19=
PLAYORDER=
